<?xml version="1.0" standalone="no"?>
<!DOCTYPE svg PUBLIC "-//W3C//DTD SVG 20010904//EN"
 "http://www.w3.org/TR/2001/REC-SVG-20010904/DTD/svg10.dtd">
<svg version="1.0" xmlns="http://www.w3.org/2000/svg"
 width="193.000000pt" height="117.000000pt" viewBox="0 0 243.000000 157.000000"
 preserveAspectRatio="xMidYMid meet">

<g transform="translate(0.000000,157.000000) scale(0.100000,-0.100000)"
fill="#2d2d2d" stroke="none">
<path d="M316 1548 c-2 -7 -14 -148 -25 -314 -23 -315 -21 -342 18 -363 11 -6
44 -11 74 -11 l55 0 6 108 c11 180 6 169 78 174 75 5 98 28 98 94 l0 44 -75 0
-75 0 0 54 c0 84 2 86 84 86 39 0 81 3 92 6 27 7 44 44 44 94 l0 40 -185 0
c-140 0 -187 -3 -189 -12z"/>
<path d="M964 1391 c-18 -11 -39 -29 -47 -42 l-16 -22 -10 26 c-6 14 -19 31
-30 36 -24 13 -108 15 -115 2 -6 -10 -36 -373 -36 -439 0 -65 33 -94 103 -90
l52 3 13 164 c14 187 28 234 75 239 22 3 27 -1 28 -20 3 -76 2 -73 45 -76 51
-4 89 24 105 78 34 114 -69 201 -167 141z"/>
<path d="M1354 1394 c-104 -37 -172 -143 -181 -285 -7 -97 11 -152 67 -203 45
-40 92 -56 170 -56 112 0 190 43 190 105 0 24 -7 39 -22 49 -32 22 -56 20 -90
-9 -40 -34 -82 -33 -119 4 -16 16 -29 38 -29 49 0 17 11 21 78 31 153 23 226
83 226 186 0 64 -28 106 -84 129 -50 20 -150 20 -206 0z m110 -130 c37 -37 6
-87 -66 -106 -26 -6 -50 -9 -53 -6 -11 11 13 80 36 104 26 28 61 31 83 8z"/>
<path d="M1900 1401 c-110 -34 -181 -125 -199 -257 -26 -178 50 -281 215 -292
153 -10 262 73 194 146 -27 29 -55 28 -92 -3 -34 -28 -66 -32 -107 -10 -22 11
-51 57 -51 80 0 2 26 6 58 9 176 21 259 89 250 203 -8 91 -68 134 -188 132
-30 0 -66 -4 -80 -8z m88 -133 c21 -21 14 -65 -13 -86 -25 -20 -92 -38 -102
-28 -12 11 9 75 32 100 25 28 63 34 83 14z"/>
<path d="M1945 758 c-5 -15 -34 -424 -42 -584 -5 -103 -4 -113 15 -132 21 -21
89 -37 120 -28 16 5 20 25 30 162 8 90 19 172 28 195 29 72 100 102 139 59 16
-18 17 -32 9 -152 -12 -191 -11 -214 10 -236 23 -26 113 -40 131 -21 12 14 35
264 35 387 0 116 -36 163 -130 170 -86 6 -125 -4 -162 -42 l-33 -34 6 97 c8
107 0 138 -41 158 -33 17 -109 17 -115 1z"/>
<path d="M47 733 c-4 -3 -7 -31 -7 -62 0 -31 -9 -171 -20 -311 -11 -140 -18
-267 -15 -281 10 -45 36 -60 107 -62 l63 -2 7 230 c4 127 9 246 10 265 2 22
21 -48 51 -194 51 -243 64 -280 98 -291 41 -13 120 -10 129 6 5 8 46 126 91
262 45 136 83 247 84 245 2 -2 -3 -68 -11 -148 -29 -306 -29 -325 -6 -348 27
-27 128 -41 146 -21 14 14 47 448 46 600 0 107 -8 113 -156 117 -111 4 -114 3
-123 -20 -6 -12 -38 -130 -72 -260 -34 -131 -64 -236 -66 -235 -1 2 -17 90
-33 195 -39 247 -51 281 -105 307 -34 15 -205 22 -218 8z"/>
<path d="M1593 683 c-8 -21 -21 -54 -28 -73 -8 -24 -20 -36 -40 -42 -37 -9
-45 -23 -45 -80 0 -47 1 -48 31 -48 l32 0 -6 -53 c-17 -138 -20 -286 -7 -317
31 -74 182 -90 238 -25 16 19 22 39 22 76 0 52 -7 58 -44 34 -13 -9 -31 -12
-41 -9 -16 7 -17 18 -11 122 11 175 9 172 67 172 58 0 79 23 79 87 l0 43 -60
0 -60 0 0 53 c0 71 -19 97 -71 97 -37 0 -41 -3 -56 -37z"/>
<path d="M1055 568 c-71 -25 -115 -78 -115 -136 0 -42 28 -70 77 -78 l43 -6
19 44 c20 46 35 58 76 58 34 0 55 -26 55 -69 l0 -38 -81 -11 c-175 -25 -253
-98 -236 -224 7 -53 39 -85 96 -97 66 -14 133 2 177 44 34 33 35 33 43 12 15
-39 48 -60 94 -60 69 0 107 31 122 100 5 27 3 33 -22 45 l-28 13 0 160 c0 150
-1 162 -22 191 -33 46 -88 64 -186 63 -45 0 -95 -5 -112 -11z m145 -328 c0
-29 -27 -78 -49 -90 -50 -26 -98 -1 -87 45 8 33 44 51 129 64 4 0 7 -8 7 -19z"/>
</g>
</svg>
